<?xml version="1.0" encoding="UTF-8"?>
<svg version="1.1" xmlns="http://www.w3.org/2000/svg" width="512" height="512">
<path d="M0 0 C0.97051306 -0.00453111 1.94102612 -0.00906223 2.94094867 -0.01373065 C6.1958441 -0.02639978 9.45057274 -0.02475264 12.70549011 -0.02310181 C15.03804744 -0.02908549 17.37060279 -0.03589066 19.70315552 -0.04345703 C26.04204797 -0.06114069 32.38088645 -0.06581342 38.71980119 -0.0670886 C44.01056766 -0.06898698 49.30132153 -0.07634383 54.59208316 -0.08343279 C66.36144436 -0.09907673 78.13078217 -0.10476991 89.90015284 -0.10342209 C90.60612898 -0.10334218 91.31210513 -0.10326227 92.03947449 -0.10317993 C92.74631481 -0.10309817 93.45315514 -0.10301641 94.18141486 -0.10293217 C105.63443388 -0.10211942 117.08732134 -0.12125475 128.54030231 -0.14945666 C140.30619773 -0.17819998 152.07202901 -0.19199615 163.83796042 -0.19026911 C170.44120559 -0.18975905 177.04430188 -0.19546683 183.64751625 -0.21662521 C189.85851182 -0.2359831 196.06921613 -0.23614854 202.28022194 -0.22159195 C204.55863876 -0.21949972 206.8370737 -0.22422929 209.11545944 -0.23631287 C212.22843851 -0.25175222 215.34041168 -0.24246511 218.45336914 -0.22705078 C219.80236769 -0.24248147 219.80236769 -0.24248147 221.17861873 -0.25822389 C228.13947711 -0.18217726 233.38782006 1.61279486 238.65934753 6.23226929 C239.19817566 6.88324585 239.73700378 7.53422241 240.29216003 8.20492554 C240.84645691 8.85332397 241.40075378 9.50172241 241.97184753 10.16976929 C244.62583325 14.02163504 245.66931449 17.49277336 245.64421082 22.14950562 C245.64405975 23.0901033 245.64390869 24.03070099 245.64375305 24.99980164 C245.63343048 26.00206284 245.62310791 27.00432404 245.61247253 28.03695679 C245.60822769 29.59116585 245.60822769 29.59116585 245.60389709 31.17677307 C245.59272457 34.4779426 245.56762508 37.77883835 245.54216003 41.07992554 C245.53212646 43.32145807 245.52300127 45.56299487 245.51481628 47.80453491 C245.49279482 53.29225814 245.45934624 58.77982227 245.41716003 64.26742554 C246.53687195 64.24647827 247.65658386 64.22553101 248.81022644 64.20394897 C252.9809938 64.13132128 257.15170572 64.08554343 261.32292175 64.04769897 C263.12510084 64.02763521 264.92721524 64.00037741 266.72917175 63.96566772 C269.3258514 63.91691725 271.92166732 63.89440472 274.51872253 63.87680054 C275.31895844 63.8561554 276.11919434 63.83551025 276.94367981 63.8142395 C282.24101325 63.81213457 285.28438903 64.66127009 289.41716003 68.26742554 C293.4844592 73.22981705 293.98411193 76.7020121 293.8712616 82.84310913 C293.8718457 83.68279236 293.87242981 84.52247559 293.87303162 85.38760376 C293.87025742 88.14745234 293.83919754 90.90620446 293.80778503 93.66586304 C293.80032027 95.58542287 293.79462845 97.50499035 293.79063416 99.42456055 C293.77539642 104.46517146 293.73613057 109.50531786 293.69181824 114.54574585 C293.65082542 119.69379392 293.63261457 124.84191739 293.61247253 129.99008179 C293.56963457 140.08273326 293.50140572 150.1750407 293.41716003 160.26742554 C294.60156677 160.24647827 295.78597351 160.22553101 297.00627136 160.20394897 C301.44738935 160.13093883 305.88845552 160.0854063 310.33000183 160.04769897 C312.24350437 160.02772134 314.15694696 160.00052955 316.07023621 159.96566772 C331.10539231 159.69879468 342.99757147 160.36592795 354.41716003 171.26742554 C365.43274997 182.80652865 366.00765306 195.04643074 365.93473816 210.15023804 C365.94016645 212.04532405 365.94729305 213.94040585 365.95597839 215.83547974 C365.9741306 220.9553447 365.96717779 226.07488531 365.95446205 231.19475555 C365.94429226 236.56810847 365.95373874 241.94143474 365.96000671 247.31478882 C365.96727156 256.33616083 365.95772596 265.3574016 365.93864441 274.37875366 C365.91687797 284.78928967 365.92393016 295.19951225 365.94595003 305.61004066 C365.96413719 314.56919844 365.96664615 323.5282622 365.95619535 332.48743248 C365.94997865 337.82920845 365.94907447 343.1708374 365.96234131 348.51260376 C365.97394751 353.53608019 365.96578725 358.55915489 365.94276428 363.5825882 C365.9375026 365.41951075 365.93894711 367.25646747 365.94781494 369.09337616 C366.00991799 383.27126969 364.65649371 394.54147006 354.41716003 405.26742554 C342.38765362 416.75116984 329.58292699 416.83313838 313.87419128 416.65805054 C311.89451675 416.65057787 309.91483476 416.64488979 307.93515015 416.64089966 C302.75816447 416.62572409 297.58163717 416.58651297 292.40483093 416.54208374 C287.10887347 416.50095562 281.81284099 416.48285138 276.51676941 416.46273804 C266.15003303 416.42001003 255.78363485 416.35185797 245.41716003 416.26742554 C245.42604248 417.23937866 245.43492493 418.21133179 245.44407654 419.21273804 C245.52532516 428.39305396 245.58520336 437.57329649 245.62440872 446.75389099 C245.64524259 451.47323649 245.67348308 456.19229065 245.71891785 460.91146851 C245.76252599 465.4696843 245.78632871 470.02762068 245.79666901 474.58602905 C245.80403359 476.32109981 245.81841487 478.05615606 245.84008026 479.79110718 C245.86931415 482.23015845 245.87310785 484.66806973 245.8712616 487.10726929 C245.89283325 488.17218849 245.89283325 488.17218849 245.9148407 489.25862122 C245.86263169 495.67444869 243.6332328 500.73854727 239.45231628 505.50961304 C238.80133972 506.04844116 238.15036316 506.58726929 237.47966003 507.14242554 C236.8312616 507.69672241 236.18286316 508.25101929 235.51481628 508.82211304 C230.09884279 512.55378937 225.19942125 512.55660989 218.83432007 512.53485107 C217.86380701 512.53938219 216.89329395 512.5439133 215.8933714 512.54858172 C212.63847597 512.56125085 209.38374733 512.55960371 206.12882996 512.55795288 C203.79627263 512.56393656 201.46371728 512.57074174 199.13116455 512.57830811 C192.79227209 512.59599176 186.45343362 512.60066449 180.11451888 512.60193968 C174.82375241 512.60383806 169.53299854 512.61119491 164.24223691 512.61828387 C152.47287571 512.63392781 140.7035379 512.63962098 128.93416723 512.63827316 C128.22819108 512.63819325 127.52221494 512.63811334 126.79484558 512.63803101 C126.08800526 512.63794924 125.38116493 512.63786748 124.6529052 512.63778324 C113.19988618 512.6369705 101.74699873 512.65610582 90.29401775 512.68430774 C78.52812234 512.71305105 66.76229106 512.72684723 54.99635965 512.72512019 C48.39311448 512.72461013 41.79001819 512.7303179 35.18680382 512.75147629 C28.97580825 512.77083418 22.76510394 512.77099961 16.55409813 512.75644302 C14.2756813 512.7543508 11.99724637 512.75908036 9.71886063 512.77116394 C6.60588156 512.78660329 3.49390839 512.77731618 0.38095093 512.76190186 C-0.51838144 512.77218898 -1.4177138 512.78247611 -2.34429866 512.79307497 C-9.30515704 512.71702833 -14.55349999 510.92205621 -19.82502747 506.30258179 C-20.36385559 505.65160522 -20.90268372 505.00062866 -21.45783997 504.32992554 C-22.01213684 503.6815271 -22.56643372 503.03312866 -23.13752747 502.36508179 C-26.45213632 497.55441975 -26.86695033 493.16710952 -26.80989075 487.44784546 C-26.8101828 486.67658325 -26.81047485 485.90532104 -26.81077576 485.11068726 C-26.80938748 482.57297334 -26.79385011 480.03555662 -26.77815247 477.49789429 C-26.77442055 475.73384257 -26.77157442 473.96978878 -26.76957703 472.20573425 C-26.76195466 467.57133219 -26.74231818 462.93705623 -26.72016907 458.30270386 C-26.69968054 453.57025864 -26.69056888 448.83779298 -26.68049622 444.10531616 C-26.65907096 434.825964 -26.62495188 425.54670527 -26.58283997 416.26742554 C-28.21869804 416.28074921 -28.21869804 416.28074921 -29.88760376 416.29434204 C-40.20013586 416.37567362 -50.5126023 416.4355085 -60.82538319 416.47467422 C-66.12642673 416.49548714 -71.4272099 416.52368915 -76.72810364 416.56918335 C-81.85042544 416.61286639 -86.97249789 416.63660992 -92.09499168 416.64693451 C-94.04249174 416.65428573 -95.98997923 416.66864034 -97.93737221 416.69034576 C-112.69231311 416.84815847 -124.3864872 415.95581523 -135.58283997 405.26742554 C-146.5984299 393.72832242 -147.17333299 381.48842034 -147.10041809 366.38461304 C-147.10584638 364.48952702 -147.11297299 362.59444523 -147.12165833 360.69937134 C-147.13981053 355.57950638 -147.13285772 350.45996576 -147.12014198 345.34009552 C-147.1099722 339.9667426 -147.11941867 334.59341634 -147.12568665 329.22006226 C-147.13295149 320.19869024 -147.12340589 311.17744947 -147.10432434 302.15609741 C-147.0825579 291.74556141 -147.08961009 281.33533882 -147.11162996 270.92481041 C-147.12981712 261.96565263 -147.13232608 253.00658888 -147.12187529 244.04741859 C-147.11565858 238.70564262 -147.1147544 233.36401368 -147.12802124 228.02224731 C-147.13962744 222.99877089 -147.13146718 217.97569619 -147.10844421 212.95226288 C-147.10318253 211.11534032 -147.10462704 209.2783836 -147.11349487 207.44147491 C-147.17559792 193.26358138 -145.82217365 181.99338101 -135.58283997 171.26742554 C-123.36033331 159.59943714 -110.34493965 159.72680971 -94.39533997 160.01742554 C-92.47022837 160.03752437 -90.54509648 160.05576914 -88.61994934 160.07211304 C-83.94040493 160.1158334 -79.26185024 160.18467316 -74.58283997 160.26742554 C-74.59172241 159.20333466 -74.60060486 158.13924377 -74.60975647 157.04290771 C-74.69088945 147.00842608 -74.75082805 136.97401112 -74.79008865 126.93927574 C-74.81095163 121.78045339 -74.83924594 116.62189612 -74.88459778 111.46322632 C-74.92810121 106.48357162 -74.95198678 101.50417167 -74.96234894 96.52434158 C-74.96973221 94.62573868 -74.98415011 92.72714951 -75.00576019 90.82865524 C-75.03485405 88.16650151 -75.03879349 85.50539661 -75.03694153 82.84310913 C-75.05132263 82.06051727 -75.06570374 81.27792542 -75.08052063 80.47161865 C-75.0415466 75.28421831 -73.97182131 72.40222152 -70.58283997 68.26742554 C-65.68275237 63.99172829 -61.88161288 63.71691982 -55.68440247 63.87680054 C-54.84944244 63.88246033 -54.01448242 63.88812012 -53.15422058 63.89395142 C-50.50482731 63.91622331 -47.85681981 63.9664003 -45.20783997 64.01742554 C-43.40447417 64.03750251 -41.60108704 64.05575119 -39.79768372 64.07211304 C-35.39220728 64.11605768 -30.98775803 64.18501953 -26.58283997 64.26742554 C-26.59172241 63.69637085 -26.60060486 63.12531616 -26.60975647 62.53695679 C-26.69859037 56.56684427 -26.75872302 50.59692104 -26.80256653 44.62631226 C-26.82262043 42.40129971 -26.84987061 40.17633947 -26.88459778 37.95150757 C-26.93338931 34.74418189 -26.95587158 31.53755603 -26.97346497 28.32992554 C-26.99411011 27.34314819 -27.01475525 26.35637085 -27.036026 25.33969116 C-27.03839607 17.96278148 -25.52457557 12.62439619 -20.61799622 7.02523804 C-19.96701965 6.48640991 -19.31604309 5.94758179 -18.64533997 5.39242554 C-17.99694153 4.83812866 -17.34854309 4.28383179 -16.68049622 3.71273804 C-11.26452272 -0.0189383 -6.36510118 -0.02175881 0 0 Z M-8.58283997 19.26742554 C-10.65924624 22.82064835 -10.83085039 25.96977832 -10.823349 30.03178406 C-10.82610399 31.18059964 -10.82885899 32.32941523 -10.83169746 33.5130434 C-10.82450125 34.76915015 -10.81730503 36.0252569 -10.80989075 37.31942749 C-10.80927774 38.68171013 -10.80954563 40.0439934 -10.81062126 41.40627575 C-10.81107205 45.04837828 -10.79949574 48.6903489 -10.78540039 52.33242035 C-10.77399511 55.75228788 -10.77347331 59.17212362 -10.77204895 62.5920105 C-10.76156191 72.58799959 -10.73363953 82.58396424 -10.70783997 92.57992554 C-10.66658997 114.91680054 -10.62533997 137.25367554 -10.58283997 160.26742554 C68.61716003 160.26742554 147.81716003 160.26742554 229.41716003 160.26742554 C229.47903503 137.95117554 229.54091003 115.63492554 229.60466003 92.64242554 C229.63197205 85.59689331 229.65928406 78.55136108 229.68742371 71.29232788 C229.69745722 64.97490149 229.69745722 64.97490149 229.70349121 58.6574707 C229.70628536 55.84432879 229.71752442 53.03135684 229.73388672 50.21826172 C229.75449452 46.62758226 229.76062794 43.03714925 229.75637686 39.44641614 C229.75768414 37.51006862 229.77375914 35.57374821 229.79044628 33.63747215 C229.91637579 25.45266169 229.91637579 25.45266169 226.41716003 18.26742554 C221.87079959 15.76110199 217.39984981 15.98436335 212.35235596 16.00672913 C211.4376015 16.00290358 210.52284704 15.99907803 209.58037275 15.99513656 C206.51427274 15.98481531 203.4483603 15.98879707 200.38224792 15.99276733 C198.18437527 15.9884204 195.98650413 15.98323731 193.78863525 15.97727966 C187.81762747 15.96387689 181.84668294 15.9633124 175.87566304 15.96584296 C170.89288937 15.96691175 165.91012854 15.9620317 160.92735761 15.95723754 C148.5014867 15.94550325 136.07564398 15.94636999 123.64977204 15.95279435 C112.8614746 15.95796381 102.07326745 15.94670708 91.28498787 15.92769613 C80.20389272 15.90831907 69.12283428 15.90035293 58.04172128 15.90381938 C51.8219824 15.90563407 45.60232621 15.90297751 39.38260078 15.88910484 C33.53442676 15.87654921 27.68643373 15.87844924 21.83826256 15.89151573 C19.69123906 15.89388595 17.54420291 15.89113097 15.39719391 15.88289261 C12.46756733 15.87246131 9.53855216 15.88049692 6.60894775 15.89320374 C5.75826298 15.88582945 4.90757821 15.87845517 4.03111511 15.87085742 C-0.86249094 15.91554636 -4.44458519 16.36455974 -8.58283997 19.26742554 Z M-58.58283997 80.26742554 C-58.58283997 106.66742554 -58.58283997 133.06742554 -58.58283997 160.26742554 C-48.02283997 160.26742554 -37.46283997 160.26742554 -26.58283997 160.26742554 C-26.58283997 133.86742554 -26.58283997 107.46742554 -26.58283997 80.26742554 C-37.14283997 80.26742554 -47.70283997 80.26742554 -58.58283997 80.26742554 Z M245.41716003 80.26742554 C245.41716003 106.66742554 245.41716003 133.06742554 245.41716003 160.26742554 C255.97716003 160.26742554 266.53716003 160.26742554 277.41716003 160.26742554 C277.41716003 133.86742554 277.41716003 107.46742554 277.41716003 80.26742554 C266.85716003 80.26742554 256.29716003 80.26742554 245.41716003 80.26742554 Z M-123.21174622 183.90805054 C-129.69366651 191.09282966 -130.7040658 198.06763259 -130.71655273 207.61003113 C-130.71881829 208.3275128 -130.72108385 209.04499447 -130.72341806 209.78421801 C-130.7297238 212.17683047 -130.7289309 214.56938579 -130.72810364 216.96200562 C-130.73109727 218.6822568 -130.73450028 220.40250732 -130.73828125 222.12275696 C-130.74710481 226.78815002 -130.74945868 231.45352473 -130.75009704 236.11892533 C-130.75080849 239.03604399 -130.75294463 241.953158 -130.75559425 244.8702755 C-130.76484236 255.05385 -130.76892982 265.23741143 -130.7681427 275.42098999 C-130.76754211 284.90263736 -130.7780917 294.3842278 -130.79388636 303.86586076 C-130.8069768 312.01552688 -130.81232596 320.16517443 -130.81168729 328.31485099 C-130.81143274 333.17817575 -130.81426033 338.04144991 -130.82486534 342.90476418 C-130.83457158 347.48072872 -130.83460821 352.05659454 -130.82734871 356.63256264 C-130.82630599 358.30746099 -130.82864709 359.98236556 -130.83470917 361.65725327 C-131.24172006 377.42269891 -131.24172006 377.42269891 -124.58283997 391.26742554 C-117.44965597 398.34965821 -110.82798149 400.37153267 -100.75941467 400.3918457 C-100.03292725 400.38825043 -99.30643982 400.38465515 -98.55793762 400.38095093 C-97.77677582 400.38109695 -96.99561401 400.38124298 -96.19078064 400.38139343 C-93.62612567 400.38070052 -91.06154464 400.37293738 -88.49690247 400.36508179 C-86.71185852 400.3632154 -84.92681405 400.36179254 -83.14176941 400.36079407 C-78.45646232 400.35698629 -73.77118651 400.34717092 -69.08589172 400.33609009 C-63.45738369 400.32403429 -57.82886517 400.31946544 -52.2003479 400.31363678 C-43.66115687 400.30395818 -35.1220344 400.28478947 -26.58283997 400.26742554 C-26.58283997 384.42742554 -26.58283997 368.58742554 -26.58283997 352.26742554 C-36.48283997 351.77242554 -36.48283997 351.77242554 -46.58283997 351.26742554 C-49.58283997 348.26742554 -49.58283997 348.26742554 -49.98127747 346.32992554 C-49.97354309 345.64930054 -49.96580872 344.96867554 -49.95783997 344.26742554 C-49.96944153 343.24648804 -49.96944153 343.24648804 -49.98127747 342.20492554 C-49.4538247 339.64005718 -48.64248069 338.87028571 -46.58283997 337.26742554 C-44.21314335 336.89137805 -44.21314335 336.89137805 -41.34945679 336.88990211 C-39.71304308 336.87816725 -39.71304308 336.87816725 -38.04357052 336.86619532 C-36.84037953 336.87288749 -35.63718855 336.87957965 -34.39753723 336.88647461 C-33.12302232 336.88179464 -31.8485074 336.87711467 -30.53537083 336.87229288 C-26.99056962 336.85973117 -23.44600969 336.86597654 -19.90120745 336.87525153 C-16.0811093 336.88202064 -12.26105355 336.87157145 -8.44096375 336.86331177 C-0.95459559 336.8499493 6.53168251 336.85286332 14.01805425 336.86154969 C20.10063115 336.86831597 26.18318275 336.86924754 32.26576233 336.86597824 C33.1304024 336.86551854 33.99504247 336.86505884 34.88588375 336.86458521 C36.64220596 336.86362607 38.39852817 336.86265343 40.15485036 336.86166744 C56.63639614 336.85310618 73.11789191 336.8629592 89.59942949 336.87906854 C103.75126316 336.89247239 117.90302301 336.8901445 132.05485535 336.87631226 C148.47612379 336.86026941 164.89734836 336.85393023 181.31862354 336.86314905 C183.0686016 336.86410473 184.81857967 336.86504784 186.56855774 336.86597824 C187.42965304 336.86644107 188.29074835 336.86690389 189.17793745 336.86738075 C195.25548155 336.86997453 201.33299791 336.86559129 207.41053772 336.85853958 C214.81378408 336.85013875 222.21693498 336.85237475 229.62017035 336.86838181 C233.39976365 336.87628372 237.1791976 336.87932368 240.95878983 336.86943436 C245.04995197 336.85889145 249.14070932 336.87145206 253.2318573 336.88647461 C254.43504828 336.87978244 255.63823927 336.87309028 256.87789059 336.86619532 C258.51430429 336.87793018 258.51430429 336.87793018 260.18377686 336.88990211 C261.6013017 336.8906327 261.6013017 336.8906327 263.04746342 336.89137805 C265.848136 337.33581717 266.73555357 338.02470704 268.41716003 340.26742554 C268.81559753 342.20492554 268.81559753 342.20492554 268.79216003 344.26742554 C268.79989441 344.94805054 268.80762878 345.62867554 268.81559753 346.32992554 C268.41716003 348.26742554 268.41716003 348.26742554 265.41716003 351.26742554 C255.51716003 351.76242554 255.51716003 351.76242554 245.41716003 352.26742554 C245.41716003 368.10742554 245.41716003 383.94742554 245.41716003 400.26742554 C259.41617547 400.32565297 259.41617547 400.32565297 273.41520691 400.36508179 C279.12968181 400.37701053 284.84409227 400.3910818 290.55851746 400.41830444 C295.1685869 400.44012722 299.77858717 400.45201399 304.3887043 400.45718002 C306.1424525 400.4608589 307.89619716 400.46804261 309.6499157 400.47888565 C326.01870986 401.04222494 326.01870986 401.04222494 340.41716003 394.26742554 C347.97388457 386.65633608 349.53695307 379.56215094 349.5508728 368.92481995 C349.55313836 368.20733827 349.55540392 367.4898566 349.55773813 366.75063306 C349.56404386 364.3580206 349.56325097 361.96546528 349.56242371 359.57284546 C349.56541734 357.85259427 349.56882035 356.13234375 349.57260132 354.41209412 C349.58142487 349.74670105 349.58377875 345.08132634 349.5844171 340.41592574 C349.58512856 337.49880709 349.5872647 334.58169308 349.58991432 331.66457558 C349.59916243 321.48100107 349.60324989 311.29743965 349.60246277 301.11386108 C349.60186218 291.63221372 349.61241177 282.15062328 349.62820643 272.66899031 C349.64129687 264.51932419 349.64664603 256.36967664 349.64600736 248.22000009 C349.64575281 243.35667532 349.6485804 238.49340116 349.65918541 233.6300869 C349.66889164 229.05412235 349.66892828 224.47825653 349.66166878 219.90228844 C349.66062606 218.22739009 349.66296716 216.55248551 349.66902924 214.87759781 C350.07604013 199.11215216 350.07604013 199.11215216 343.41716003 185.26742554 C335.76796501 177.67286762 328.64406969 176.14455899 317.95730877 176.13879108 C317.22370464 176.13703805 316.49010051 176.13528501 315.73426595 176.13347885 C313.27475984 176.12882498 310.81531301 176.13128278 308.35580444 176.13371277 C306.5751261 176.13184449 304.79444816 176.12954372 303.01377088 176.12684745 C298.11921794 176.12072515 293.22468206 176.12086355 288.33012617 176.12204182 C283.05188888 176.12224572 277.77365709 176.11672813 272.49542236 176.11198425 C262.15395369 176.10367484 251.81249072 176.10092928 241.47101899 176.10037187 C233.06591728 176.09989686 224.66081744 176.09784286 216.25571632 176.09467125 C192.43094296 176.08586397 168.6061741 176.081252 144.78139909 176.08200172 C143.49677393 176.08204168 142.21214878 176.08208164 140.88859558 176.0821228 C139.6024038 176.08216368 138.31621202 176.08220456 136.99104474 176.08224668 C116.14295069 176.0826532 95.29487471 176.07308246 74.44678589 176.05898444 C53.04524634 176.04462623 31.6437156 176.03771394 10.24217111 176.03857821 C-1.77523447 176.03891037 -13.79262111 176.03615509 -25.81002235 176.02540016 C-36.0412755 176.01630249 -46.27250113 176.01411389 -56.50375656 176.02090959 C-61.72404438 176.02417846 -66.9442794 176.0242182 -72.16456223 176.01555634 C-76.94446853 176.00770672 -81.72428002 176.00910705 -86.50418397 176.01784047 C-88.23228295 176.01937884 -89.96038894 176.01754661 -91.68847964 176.01198039 C-108.82999899 175.57412098 -108.82999899 175.57412098 -123.21174622 183.90805054 Z M-10.58283997 352.26742554 C-10.64471497 374.58367554 -10.70658997 396.89992554 -10.77033997 419.89242554 C-10.79765198 426.93795776 -10.82496399 433.98348999 -10.85310364 441.24252319 C-10.86313715 447.55994958 -10.86313715 447.55994958 -10.86917114 453.87738037 C-10.87196529 456.69052228 -10.88320435 459.50349423 -10.89956665 462.31658936 C-10.92017445 465.90726881 -10.92630787 469.49770183 -10.92205679 473.08843493 C-10.92336407 475.02478246 -10.93943907 476.96110286 -10.95612621 478.89737892 C-11.08205572 487.08218938 -11.08205572 487.08218938 -7.58283997 494.26742554 C-3.03647952 496.77374908 1.43447026 496.55048772 6.48196411 496.52812195 C7.8540958 496.53386027 7.8540958 496.53386027 9.25394732 496.53971452 C12.32004733 496.55003576 15.38595977 496.54605401 18.45207214 496.54208374 C20.6499448 496.54643068 22.84781594 496.55161377 25.04568481 496.55757141 C31.0166926 496.57097418 36.98763713 496.57153868 42.95865703 496.56900811 C47.9414307 496.56793933 52.92419153 496.57281937 57.90696245 496.57761353 C70.33283337 496.58934782 82.75867609 496.58848109 95.18454803 496.58205672 C105.97284546 496.57688727 116.76105262 496.58814399 127.54933219 496.60715494 C138.63042735 496.626532 149.71148579 496.63449815 160.79259878 496.63103169 C167.01233767 496.62921701 173.23199385 496.63187357 179.45171928 496.64574623 C185.29989331 496.65830187 191.14788633 496.65640183 196.99605751 496.64333534 C199.14308101 496.64096513 201.29011716 496.64372011 203.43712616 496.65195847 C206.36675274 496.66238976 209.29576791 496.65435415 212.22537231 496.64164734 C213.07605709 496.64902162 213.92674186 496.65639591 214.80320495 496.66399366 C219.69681101 496.61930472 223.27890525 496.17029133 227.41716003 493.26742554 C229.49356631 489.71420273 229.66517046 486.56507275 229.65766907 482.50306702 C229.66042406 481.35425143 229.66317905 480.20543585 229.66601753 479.02180767 C229.65882132 477.76570092 229.6516251 476.50959417 229.64421082 475.21542358 C229.64359781 473.85314095 229.6438657 472.49085768 229.64494133 471.12857533 C229.64539212 467.4864728 229.63381581 463.84450218 229.61972046 460.20243073 C229.60831518 456.7825632 229.60779338 453.36272745 229.60636902 449.94284058 C229.59588198 439.94685148 229.5679596 429.95088684 229.54216003 419.95492554 C229.50091003 397.61805054 229.45966003 375.28117554 229.41716003 352.26742554 C150.21716003 352.26742554 71.01716003 352.26742554 -10.58283997 352.26742554 Z " fill="#000000" transform="translate(146.5828399658203,-0.267425537109375)"/>
<path d="M0 0 C1.07895098 -0.00935994 1.07895098 -0.00935994 2.17969894 -0.01890898 C4.59051012 -0.03486688 7.0003141 -0.0222246 9.41113281 -0.00964355 C11.13920685 -0.01506346 12.86727627 -0.02218538 14.59533691 -0.03088379 C19.2895488 -0.0491358 23.98340946 -0.0420419 28.67762756 -0.02936745 C33.5871781 -0.01924949 38.4966983 -0.02862977 43.40625 -0.03491211 C51.65142219 -0.04219203 59.89645112 -0.03259177 68.14160156 -0.0135498 C77.67793127 0.00821959 87.21391891 0.00116847 96.75024033 -0.02085543 C104.93378505 -0.03899961 113.11722673 -0.04157256 121.30078506 -0.03110075 C126.19028583 -0.02486042 131.07962574 -0.02404501 135.96911621 -0.0372467 C140.56568944 -0.04879031 145.1618211 -0.04080686 149.75834656 -0.01766968 C151.44662238 -0.01237459 153.13493528 -0.01391002 154.82319641 -0.02272034 C157.12547337 -0.03362844 159.42632957 -0.01997156 161.72851562 0 C163.0175177 0.0015081 164.30651978 0.0030162 165.63458252 0.00457001 C169.40840086 0.59274258 170.58638645 1.50383569 172.86425781 4.50793457 C173.39550781 6.50793457 173.39550781 6.50793457 173.36425781 8.50793457 C173.37972656 9.49793457 173.37972656 9.49793457 173.39550781 10.50793457 C172.60459702 13.48548108 171.27252696 14.60475405 168.86425781 16.50793457 C165.63458252 17.01129913 165.63458252 17.01129913 161.72851562 17.01586914 C160.64956465 17.02522908 160.64956465 17.02522908 159.54881668 17.03477812 C157.1380055 17.05073602 154.72820153 17.03809374 152.31738281 17.0255127 C150.58930877 17.0309326 148.86123936 17.03805452 147.13317871 17.04675293 C142.43896683 17.06500494 137.74510617 17.05791104 133.05088806 17.04523659 C128.14133753 17.03511864 123.23181732 17.04449891 118.32226562 17.05078125 C110.07709344 17.05806117 101.83206451 17.04846091 93.58691406 17.02941895 C84.05058436 17.00764955 74.51459671 17.01470067 64.9782753 17.03672457 C56.79473057 17.05486875 48.6112889 17.0574417 40.42773056 17.04696989 C35.5382298 17.04072956 30.64888988 17.03991415 25.75939941 17.05311584 C21.16282619 17.06465945 16.56669452 17.05667601 11.97016907 17.03353882 C10.28189325 17.02824374 8.59358035 17.02977916 6.90531921 17.03858948 C4.60304225 17.04949758 2.30218606 17.0358407 0 17.01586914 C-1.28900208 17.01436104 -2.57800415 17.01285294 -3.90606689 17.01129913 C-7.67988523 16.42312656 -8.85787083 15.51203345 -11.13574219 12.50793457 C-11.66699219 10.50793457 -11.66699219 10.50793457 -11.63574219 8.50793457 C-11.65121094 7.51793457 -11.65121094 7.51793457 -11.66699219 6.50793457 C-10.05734744 0.44809554 -5.54245312 0.00648454 0 0 Z " fill="#000000" transform="translate(179.1357421875,455.4920654296875)"/>
<path d="M0 0 C1.07895098 -0.00935994 1.07895098 -0.00935994 2.17969894 -0.01890898 C4.59051012 -0.03486688 7.0003141 -0.0222246 9.41113281 -0.00964355 C11.13920685 -0.01506346 12.86727627 -0.02218538 14.59533691 -0.03088379 C19.2895488 -0.0491358 23.98340946 -0.0420419 28.67762756 -0.02936745 C33.5871781 -0.01924949 38.4966983 -0.02862977 43.40625 -0.03491211 C51.65142219 -0.04219203 59.89645112 -0.03259177 68.14160156 -0.0135498 C77.67793127 0.00821959 87.21391891 0.00116847 96.75024033 -0.02085543 C104.93378505 -0.03899961 113.11722673 -0.04157256 121.30078506 -0.03110075 C126.19028583 -0.02486042 131.07962574 -0.02404501 135.96911621 -0.0372467 C140.56568944 -0.04879031 145.1618211 -0.04080686 149.75834656 -0.01766968 C151.44662238 -0.01237459 153.13493528 -0.01391002 154.82319641 -0.02272034 C157.12547337 -0.03362844 159.42632957 -0.01997156 161.72851562 0 C163.0175177 0.0015081 164.30651978 0.0030162 165.63458252 0.00457001 C169.40840086 0.59274258 170.58638645 1.50383569 172.86425781 4.50793457 C173.39550781 6.50793457 173.39550781 6.50793457 173.36425781 8.50793457 C173.37972656 9.49793457 173.37972656 9.49793457 173.39550781 10.50793457 C172.60459702 13.48548108 171.27252696 14.60475405 168.86425781 16.50793457 C165.63458252 17.01129913 165.63458252 17.01129913 161.72851562 17.01586914 C160.64956465 17.02522908 160.64956465 17.02522908 159.54881668 17.03477812 C157.1380055 17.05073602 154.72820153 17.03809374 152.31738281 17.0255127 C150.58930877 17.0309326 148.86123936 17.03805452 147.13317871 17.04675293 C142.43896683 17.06500494 137.74510617 17.05791104 133.05088806 17.04523659 C128.14133753 17.03511864 123.23181732 17.04449891 118.32226562 17.05078125 C110.07709344 17.05806117 101.83206451 17.04846091 93.58691406 17.02941895 C84.05058436 17.00764955 74.51459671 17.01470067 64.9782753 17.03672457 C56.79473057 17.05486875 48.6112889 17.0574417 40.42773056 17.04696989 C35.5382298 17.04072956 30.64888988 17.03991415 25.75939941 17.05311584 C21.16282619 17.06465945 16.56669452 17.05667601 11.97016907 17.03353882 C10.28189325 17.02824374 8.59358035 17.02977916 6.90531921 17.03858948 C4.60304225 17.04949758 2.30218606 17.0358407 0 17.01586914 C-1.28900208 17.01436104 -2.57800415 17.01285294 -3.90606689 17.01129913 C-7.67988523 16.42312656 -8.85787083 15.51203345 -11.13574219 12.50793457 C-11.66699219 10.50793457 -11.66699219 10.50793457 -11.63574219 8.50793457 C-11.65121094 7.51793457 -11.65121094 7.51793457 -11.66699219 6.50793457 C-10.05734744 0.44809554 -5.54245312 0.00648454 0 0 Z " fill="#000000" transform="translate(179.1357421875,415.4920654296875)"/>
<path d="M0 0 C1.07895098 -0.00935994 1.07895098 -0.00935994 2.17969894 -0.01890898 C4.59051012 -0.03486688 7.0003141 -0.0222246 9.41113281 -0.00964355 C11.13920685 -0.01506346 12.86727627 -0.02218538 14.59533691 -0.03088379 C19.2895488 -0.0491358 23.98340946 -0.0420419 28.67762756 -0.02936745 C33.5871781 -0.01924949 38.4966983 -0.02862977 43.40625 -0.03491211 C51.65142219 -0.04219203 59.89645112 -0.03259177 68.14160156 -0.0135498 C77.67793127 0.00821959 87.21391891 0.00116847 96.75024033 -0.02085543 C104.93378505 -0.03899961 113.11722673 -0.04157256 121.30078506 -0.03110075 C126.19028583 -0.02486042 131.07962574 -0.02404501 135.96911621 -0.0372467 C140.56568944 -0.04879031 145.1618211 -0.04080686 149.75834656 -0.01766968 C151.44662238 -0.01237459 153.13493528 -0.01391002 154.82319641 -0.02272034 C157.12547337 -0.03362844 159.42632957 -0.01997156 161.72851562 0 C163.0175177 0.0015081 164.30651978 0.0030162 165.63458252 0.00457001 C169.40840086 0.59274258 170.58638645 1.50383569 172.86425781 4.50793457 C173.39550781 6.50793457 173.39550781 6.50793457 173.36425781 8.50793457 C173.37972656 9.49793457 173.37972656 9.49793457 173.39550781 10.50793457 C172.60459702 13.48548108 171.27252696 14.60475405 168.86425781 16.50793457 C165.63458252 17.01129913 165.63458252 17.01129913 161.72851562 17.01586914 C160.64956465 17.02522908 160.64956465 17.02522908 159.54881668 17.03477812 C157.1380055 17.05073602 154.72820153 17.03809374 152.31738281 17.0255127 C150.58930877 17.0309326 148.86123936 17.03805452 147.13317871 17.04675293 C142.43896683 17.06500494 137.74510617 17.05791104 133.05088806 17.04523659 C128.14133753 17.03511864 123.23181732 17.04449891 118.32226562 17.05078125 C110.07709344 17.05806117 101.83206451 17.04846091 93.58691406 17.02941895 C84.05058436 17.00764955 74.51459671 17.01470067 64.9782753 17.03672457 C56.79473057 17.05486875 48.6112889 17.0574417 40.42773056 17.04696989 C35.5382298 17.04072956 30.64888988 17.03991415 25.75939941 17.05311584 C21.16282619 17.06465945 16.56669452 17.05667601 11.97016907 17.03353882 C10.28189325 17.02824374 8.59358035 17.02977916 6.90531921 17.03858948 C4.60304225 17.04949758 2.30218606 17.0358407 0 17.01586914 C-1.28900208 17.01436104 -2.57800415 17.01285294 -3.90606689 17.01129913 C-7.67988523 16.42312656 -8.85787083 15.51203345 -11.13574219 12.50793457 C-11.66699219 10.50793457 -11.66699219 10.50793457 -11.63574219 8.50793457 C-11.65121094 7.51793457 -11.65121094 7.51793457 -11.66699219 6.50793457 C-10.05734744 0.44809554 -5.54245312 0.00648454 0 0 Z " fill="#000000" transform="translate(179.1357421875,375.4920654296875)"/>
<path d="M0 0 C5.82485779 3.51996782 10.54466582 8.98962934 12.5625 15.5 C13.36764105 23.33608208 13.68710392 31.11922577 8.5625 37.5 C3.75801361 42.54521222 -0.59927055 46.10562995 -7.70703125 46.8359375 C-16.22326573 46.92983204 -22.11345494 46.6177288 -28.40234375 40.62890625 C-34.7841668 33.72505269 -35.91792252 28.29832071 -35.7421875 18.9453125 C-35.04689797 11.08319245 -31.38995981 6.95041296 -25.53515625 1.9453125 C-18.47077988 -2.92213491 -7.84396301 -3.47595223 0 0 Z M-16.8125 17.125 C-18.92456506 20.21186432 -19.04945145 21.8282913 -18.4375 25.5 C-16.9375 28 -16.9375 28 -14.4375 29.5 C-10.7657913 30.11195145 -9.14936432 29.98706506 -6.0625 27.875 C-3.95043494 24.78813568 -3.82554855 23.1717087 -4.4375 19.5 C-5.9375 17 -5.9375 17 -8.4375 15.5 C-12.1092087 14.88804855 -13.72563568 15.01293494 -16.8125 17.125 Z " fill="#000000" transform="translate(467.4375,193.5)"/>
<path d="M0 0 C5.82485779 3.51996782 10.54466582 8.98962934 12.5625 15.5 C13.36764105 23.33608208 13.68710392 31.11922577 8.5625 37.5 C3.75801361 42.54521222 -0.59927055 46.10562995 -7.70703125 46.8359375 C-16.22326573 46.92983204 -22.11345494 46.6177288 -28.40234375 40.62890625 C-34.7841668 33.72505269 -35.91792252 28.29832071 -35.7421875 18.9453125 C-35.04689797 11.08319245 -31.38995981 6.95041296 -25.53515625 1.9453125 C-18.47077988 -2.92213491 -7.84396301 -3.47595223 0 0 Z M-16.8125 17.125 C-18.92456506 20.21186432 -19.04945145 21.8282913 -18.4375 25.5 C-16.9375 28 -16.9375 28 -14.4375 29.5 C-10.7657913 30.11195145 -9.14936432 29.98706506 -6.0625 27.875 C-3.95043494 24.78813568 -3.82554855 23.1717087 -4.4375 19.5 C-5.9375 17 -5.9375 17 -8.4375 15.5 C-12.1092087 14.88804855 -13.72563568 15.01293494 -16.8125 17.125 Z " fill="#000000" transform="translate(403.4375,193.5)"/>
</svg>
